<svg height="479pt" viewBox="0 -35 479.65783 479" width="479pt" xmlns="http://www.w3.org/2000/svg"><path d="m204.042969 8.328125c39.761719 0 72 32.234375 72 72-39.765625 0-72-32.234375-72-72zm0 0" fill="#8ac03f"/><path d="m168.042969 160.328125h-40c-48.601563 0-88-39.398437-88-88v-40h40c48.601562 0 88 39.398437 88 88zm0 0" fill="#8ac03f"/><path d="m197.28125 88.328125c-37.53125.003906-71.839844 21.207031-88.625 54.777344-8.292969 16.585937-12.613281 34.878906-12.613281 53.421875 0 28.875 6.125 57.417968 17.976562 83.746094l35.621094 79.253906c11.195313 24.859375 35.9375 40.832031 63.203125 40.800781 7.4375 0 14.828125-1.199219 21.886719-3.550781l37.3125-12.449219 37.34375 12.449219c7.046875 2.347656 14.425781 3.546875 21.855469 3.550781 27.261718.03125 52.003906-15.941406 63.199218-40.800781l35.65625-79.199219c11.84375-26.347656 17.960938-54.910156 17.945313-83.800781 0-18.542969-4.320313-36.835938-12.617188-53.421875-16.785156-33.570313-51.09375-54.773438-88.625-54.777344-22.5 0-44.332031 7.65625-61.902343 21.710937l-12.855469 10.289063-12.855469-10.289063c-17.574219-14.054687-39.40625-21.710937-61.90625-21.710937zm0 0" fill="#ec4042"/><path d="m213.488281 281.714844c11.773438 51.492187-20.269531 102.824218-71.703125 114.863281s-102.929687-19.734375-115.238281-71.105469c-12.105469-51.625-3.488281-155.296875 58.832031-169.878906 62.320313-14.585938 116.03125 74.496094 128.109375 126.121094zm0 0" fill="#89b33b"/><path d="m184.019531 303.59375c0 35.34375-28.65625 64-64 64-35.347656 0-64-28.65625-64-64 0-35.347656 28.652344-64 64-64 35.34375 0 64 28.652344 64 64zm0 0" fill="#fae100"/><path d="m25.640625 400.328125h353.066406c13.660157.003906 26.761719-5.425781 36.421875-15.085937l4.496094-4.496094c20.089844-20.109375 20.089844-52.691406 0-72.800782-12.226562-12.230468-29.773438-17.507812-46.71875-14.046874l-350.769531 71.550781c-8.210938 1.667969-14.109375 8.898437-14.09375 17.28125 0 9.71875 7.878906 17.597656 17.597656 17.597656zm0 0" fill="#ffc117"/><path d="m470.394531 320.496094-18.402343 3.878906 10.65625-15.527344-13.199219-9.039062-12.734375 18.558594c-2.367188-4.859376-5.386719-9.371094-8.976563-13.414063l9.597657-21.425781c12.269531-27.351563 18.644531-56.980469 18.707031-86.957032-.011719-19.789062-4.625-39.300781-13.472657-57-8.851562-17.8125-22.511718-32.789062-39.433593-43.242187-38.285157-23.671875-87.289063-20.871094-122.632813 7.007813 2.171875-30.71875 15.382813-59.613282 37.195313-81.351563l-11.3125-11.3125c-11.589844 11.640625-21.109375 25.164063-28.152344 40-12.136719-30.351563-41.503906-50.28125-74.191406-50.34375-4.417969 0-8 3.582031-8 8 .066406 40.410156 30.226562 74.441406 70.335937 79.359375-.933594 5.402344-1.558594 10.851562-1.875 16.320312l-.308594-.246093c-26.761718-21.355469-62.105468-28.660157-95.136718-19.65625-14.65625-36.253907-49.914063-59.929688-89.015625-59.777344h-40c-4.417969 0-8 3.582031-8 8v40c-.132813 31.453125 15.261719 60.949219 41.144531 78.824219-25.3125 10.320312-43.488281 35.488281-52.890625 73.601562-8.007813 33.652344-8.554687 68.648438-1.597656 102.535156 2.335937 9.980469 6.152343 19.558594 11.320312 28.414063l-9.515625 1.9375c-12.890625 2.617187-21.699218 14.582031-20.375 27.667969 1.328125 13.089844 12.359375 23.042968 25.511719 23.019531h353.066406c15.789063.042969 30.941407-6.234375 42.078125-17.429687l4.496094-4.496094c8.332031-8.289063 14-18.875 16.289062-30.402344l16.632813 17.777344 11.679687-10.945313-20.257812-21.597656 24.066406-5.066406zm-257.816406-303.597656c28.527344 3.898437 50.964844 26.332031 54.863281 54.863281-28.527344-3.902344-50.960937-26.335938-54.863281-54.863281zm41.601563 99.351562 12.878906 10.320312c2.921875 2.339844 7.078125 2.339844 10 0l12.863281-10.3125c30.097656-24.007812 72.027344-26.542968 104.800781-6.335937 14.394532 8.894531 26.015625 21.640625 33.542969 36.800781 7.738281 15.476563 11.769531 32.542969 11.777344 49.847656-.058594 27.71875-5.957031 55.117188-17.304688 80.40625l-7.695312 17.160157c-12.964844-8.296875-28.660157-11.207031-43.738281-8.105469l-148.0625 30.21875c1.519531-12.148438.847656-24.472656-1.984376-36.386719-8.796874-33.449219-24.796874-64.578125-46.878906-91.199219-18.839844-22.3125-38.875-36-59.128906-40.742187.199219-.394531.382812-.800781.574219-1.21875 15.3125-30.980469 46.941406-50.527344 81.496093-50.375 20.652344.03125 40.6875 7.050781 56.839844 19.921875zm-206.136719-43.921875v-32h32c32.28125-.109375 61.441406 19.269531 73.839843 49.082031-10.082031 4.464844-19.40625 10.472656-27.632812 17.816406l-14.207031-14.210937v-36.6875h-16v20.6875l-26.34375-26.34375-11.3125 11.3125 26.34375 26.34375h-20.6875v16h36.6875l14.398437 14.402344c-5.320312 6.382812-9.882812 13.363281-13.597656 20.796875-1.042969 2.042968-2.042969 4.242187-3.035156 6.554687h-1.34375c-29.835938-12.320312-49.25-41.472656-49.109375-73.753906zm-13.730469 251.296875c-6.449219-31.421875-5.933594-63.871094 1.511719-95.070312 6.355469-25.730469 20.425781-57.921876 51.402343-65.152344 30.976563-7.234375 57.839844 15.328125 74.941407 35.566406 20.507812 24.671875 35.363281 53.535156 43.53125 84.558594 2.769531 11.878906 3 24.207031.671875 36.175781l-17.136719 3.496094c8.265625-28.988281-2.402344-60.0625-26.734375-77.859375s-57.175781-18.550782-82.296875-1.890625c-25.125 16.664062-37.210937 47.210937-30.28125 76.550781 2.476563 10.523438 7.304687 20.351562 14.121094 28.746094l-17.199219 3.511718c-5.875-8.710937-10.117188-18.410156-12.53125-28.632812zm48.242188 21.335938c-8.511719-7.539063-14.464844-17.542969-17.039063-28.617188-5.613281-23.84375 4.921875-48.570312 26.011719-61.039062 21.089844-12.464844 47.832031-9.777344 66.019531 6.636718 18.183594 16.414063 23.589844 42.742188 13.34375 64.996094zm331.40625 30.128906-4.488282 4.496094c-8.140625 8.1875-19.21875 12.777343-30.765625 12.742187h-353.066406c-4.996094.097656-9.234375-3.660156-9.734375-8.632813-.5-4.976562 2.898438-9.503906 7.816406-10.40625l107.152344-21.863281c-.5 4.84375-1.574219 9.613281-3.199219 14.207031l15.0625 5.390626c2.65625-7.371094 4.175781-15.105469 4.503907-22.933594l39.113281-8c-.207031 6.355468-1.386719 12.640625-3.496094 18.640625l15.070313 5.390625c3.09375-8.769532 4.609374-18.015625 4.472656-27.3125l39.128906-8c.261719 7.832031-.941406 15.644531-3.554688 23.03125l15.074219 5.378906c3.554688-10.144531 5.003907-20.90625 4.253907-31.625l39.050781-8c.953125 9.238281-.15625 18.578125-3.257813 27.335938l15.070313 5.375c4.058593-11.507813 5.371093-23.804688 3.84375-35.910157l46.007812-9.386719c.667969 7.28125.070313 14.621094-1.761719 21.695313l-.800781 3.050781 15.472657 4.054688.800781-3.054688c2.441406-9.445312 3.113281-19.261718 1.992187-28.953125l.800782-.167969c2.875-.585937 5.804687-.878906 8.742187-.878906 17.585937.023438 33.425781 10.632813 40.144531 26.882813s2.992188 34.945312-9.441406 47.378906zm0 0"/><path d="m458.992188 136.769531c2.0625 4.5 3.886718 9.105469 5.464843 13.800781l15.199219-5.105468c-1.757812-5.21875-3.789062-10.34375-6.085938-15.351563zm0 0"/><path d="m346.800781 48.328125c-3.851562 0-7.683593.164063-11.503906.488281l1.351563 15.9375c3.378906-.28125 6.753906-.425781 10.152343-.425781 42.519531-.195313 82.082031 21.738281 104.441407 57.90625l13.601562-8.449219c-25.273438-40.878906-69.984375-65.671875-118.042969-65.457031zm0 0"/></svg>